# https://github.com/mikedh/trimesh
mtllib fridge_left_group_main_image27.mtl
usemtl fridge_left_group_main_image27
v -0.24085004 -0.12892652 -0.50000000
v -0.24580265 -0.12892652 -0.49794849
v -0.24580265 0.20732529 -0.49794849
v -0.24085004 0.20732529 -0.50000000
v -0.24580265 -0.12892652 -0.49794849
v -0.24785471 -0.12892652 -0.49299533
v -0.24785471 0.20732529 -0.49299533
v -0.24580265 0.20732529 -0.49794849
v -0.24085004 -0.13593119 -0.49299533
v -0.24085004 -0.13387968 -0.49794849
v 0.24084950 -0.13387968 -0.49794849
v 0.24084950 -0.13593119 -0.49299533
v -0.24085004 -0.13387968 -0.49794849
v -0.24085004 -0.12892652 -0.50000000
v 0.24084950 -0.12892652 -0.50000000
v 0.24084950 -0.13387968 -0.49794849
v -0.24785471 -0.12892652 -0.49299533
v -0.24580265 -0.13387968 -0.49299533
v -0.24580265 -0.13387968 0.48700909
v -0.24785471 -0.12892652 0.48700909
v -0.24580265 -0.13387968 -0.49299533
v -0.24085004 -0.13593119 0.48700909
v -0.24580265 -0.13387968 0.48700909
v 0.24785471 -0.12892652 -0.49299533
v 0.24580265 -0.12892652 -0.49794849
v 0.24580265 0.20732529 -0.49794849
v 0.24785471 0.20732529 -0.49299533
v 0.24580265 -0.12892652 -0.49794849
v 0.24084950 -0.12892652 -0.50000000
v 0.24084950 0.20732529 -0.50000000
v 0.24580265 0.20732529 -0.49794849
v 0.24580265 -0.13387968 -0.49299533
v 0.24580265 -0.13387968 0.48700909
v 0.24084950 -0.13593119 0.48700909
v 0.24580265 -0.13387968 -0.49299533
v 0.24785471 -0.12892652 -0.49299533
v 0.24785471 -0.12892652 0.48700909
v 0.24580265 -0.13387968 0.48700909
v -0.24785471 -0.12892652 0.48700909
v -0.24580265 -0.12892652 0.49196225
v -0.24580265 0.20732529 0.49196225
v -0.24785471 0.20732529 0.48700909
v -0.24580265 -0.12892652 0.49196225
v -0.24085004 -0.12892652 0.49401376
v -0.24085004 0.20732529 0.49401376
v -0.24580265 0.20732529 0.49196225
v -0.24085004 -0.12892652 0.49401376
v -0.24085004 -0.13387968 0.49196225
v 0.24084950 -0.13387968 0.49196225
v 0.24084950 -0.12892652 0.49401376
v -0.24085004 -0.13387968 0.49196225
v 0.24084950 -0.13387968 0.49196225
v 0.24084950 -0.12892652 0.49401376
v 0.24580265 -0.12892652 0.49196225
v 0.24580265 0.20732529 0.49196225
v 0.24084950 0.20732529 0.49401376
v 0.24580265 -0.12892652 0.49196225
v 0.24785471 -0.12892652 0.48700909
v 0.24785471 0.20732529 0.48700909
v 0.24580265 0.20732529 0.49196225
v -0.24785471 0.20732529 0.48700909
v -0.24580265 0.21227845 0.48700909
v -0.24580265 0.21227845 -0.49299533
v -0.24785471 0.20732529 -0.49299533
v -0.24580265 0.21227845 0.48700909
v -0.24085004 0.21432996 0.48700909
v -0.24085004 0.21432996 -0.49299533
v -0.24580265 0.21227845 -0.49299533
v -0.24085004 0.21227845 0.49196225
v 0.24084950 0.21227845 0.49196225
v 0.24084950 0.21432996 0.48700909
v -0.24085004 0.21227845 0.49196225
v -0.24085004 0.20732529 0.49401376
v 0.24084950 0.20732529 0.49401376
v 0.24084950 0.21227845 0.49196225
v 0.24580265 0.21227845 0.48700909
v 0.24580265 0.21227845 -0.49299533
v 0.24084950 0.21432996 -0.49299533
v 0.24580265 0.21227845 0.48700909
v 0.24785471 0.20732529 0.48700909
v 0.24785471 0.20732529 -0.49299533
v 0.24580265 0.21227845 -0.49299533
v -0.24085004 0.20732529 -0.50000000
v -0.24085004 0.21227845 -0.49794849
v 0.24084950 0.21227845 -0.49794849
v 0.24084950 0.20732529 -0.50000000
v -0.24085004 0.21227845 -0.49794849
v 0.24084950 0.21227845 -0.49794849
v -0.22456390 0.19663452 0.47072295
v 0.22456335 0.19663452 0.47072295
v 0.22456335 0.19663452 -0.47670919
v -0.22456390 0.19663452 -0.47670919
v 0.24785471 0.20732529 0.48700909
v 0.24785471 -0.12892652 0.48700909
v -0.24785471 -0.12892652 0.48700909
v -0.24785471 0.20732529 0.48700909
v -0.24580265 -0.12892652 -0.49794849
v -0.24489280 -0.13296928 -0.49703809
v -0.24580265 -0.12892652 -0.49794849
v -0.24489280 -0.13296928 -0.49703809
v -0.24489280 -0.13296928 -0.49703809
v 0.24580265 -0.12892652 -0.49794849
v 0.24489280 -0.13296928 -0.49703809
v 0.24580265 -0.12892652 -0.49794849
v 0.24489280 -0.13296928 -0.49703809
v 0.24489280 -0.13296928 -0.49703809
v -0.24580265 -0.12892652 0.49196225
v -0.24489280 -0.13296928 0.49105185
v -0.24580265 -0.12892652 0.49196225
v -0.24489280 -0.13296928 0.49105185
v -0.24489280 -0.13296928 0.49105185
v 0.24580265 -0.12892652 0.49196225
v 0.24489280 -0.13296928 0.49105185
v 0.24580265 -0.12892652 0.49196225
v 0.24489280 -0.13296928 0.49105185
v 0.24489280 -0.13296928 0.49105185
v -0.24489280 0.21136805 0.49105185
v -0.24580265 0.20732529 0.49196225
v -0.24489280 0.21136805 0.49105185
v -0.24580265 0.20732529 0.49196225
v -0.24489280 0.21136805 0.49105185
v 0.24580265 0.20732529 0.49196225
v 0.24489280 0.21136805 0.49105185
v 0.24489280 0.21136805 0.49105185
v 0.24580265 0.20732529 0.49196225
v 0.24489280 0.21136805 0.49105185
v -0.24580265 0.20732529 -0.49794849
v -0.24489280 0.21136805 -0.49703809
v -0.24580265 0.20732529 -0.49794849
v -0.24489280 0.21136805 -0.49703809
v -0.24489280 0.21136805 -0.49703809
v 0.24580265 0.20732529 -0.49794849
v 0.24489280 0.21136805 -0.49703809
v 0.24580265 0.20732529 -0.49794849
v 0.24489280 0.21136805 -0.49703809
v 0.24489280 0.21136805 -0.49703809
v 0.23164131 0.21432996 0.47780090
v 0.22456335 0.20725254 0.47072295
v -0.22456390 0.20725254 0.47072295
v -0.23164185 0.21432996 0.47780090
v 0.22456335 0.20725254 0.47072295
v 0.23164131 0.21432996 0.47780090
v 0.23164131 0.21432996 -0.48378715
v 0.22456335 0.20725254 -0.47670919
v -0.23164185 0.21432996 0.47780090
v -0.22456390 0.20725254 0.47072295
v -0.22456390 0.20725254 -0.47670919
v -0.23164185 0.21432996 -0.48378715
v 0.22456335 0.20725254 -0.47670919
v 0.23164131 0.21432996 -0.48378715
v -0.23164185 0.21432996 -0.48378715
v -0.22456390 0.20725254 -0.47670919
v 0.23164131 0.21432996 0.47780090
v -0.23164185 0.21432996 0.47780090
v 0.23164131 0.21432996 -0.48378715
v -0.23164185 0.21432996 -0.48378715
v -0.22456390 0.20725254 0.47072295
v 0.22456335 0.20725254 0.47072295
v 0.22456335 0.19663452 0.47072295
v -0.22456390 0.19663452 0.47072295
v 0.22456335 0.20725254 0.47072295
v 0.22456335 0.20725254 -0.47670919
v 0.22456335 0.19663452 -0.47670919
v 0.22456335 0.19663452 0.47072295
v 0.22456335 0.20725254 -0.47670919
v -0.22456390 0.20725254 -0.47670919
v -0.22456390 0.19663452 -0.47670919
v 0.22456335 0.19663452 -0.47670919
v -0.22456390 0.20725254 -0.47670919
v -0.22456390 0.20725254 0.47072295
v -0.22456390 0.19663452 0.47072295
v -0.22456390 0.19663452 -0.47670919
vn -0.16400494 -0.23430706 -0.95822888
vn -0.38231090 -0.00370011 -0.92402634
vn -0.38231076 0.00380011 -0.92402600
vn -0.16400494 0.23430706 -0.95822888
vn -0.92402634 -0.00370011 -0.38231090
vn -0.99997980 -0.00599988 -0.00209996
vn -0.99997980 0.00599988 -0.00209996
vn -0.92402634 0.00370011 -0.38231090
vn -0.00419995 -0.99998898 -0.00209998
vn -0.00259998 -0.92399422 -0.38239761
vn 0.00259998 -0.92399422 -0.38239761
vn 0.00419995 -0.99998898 -0.00209998
vn -0.00259998 -0.38239761 -0.92399422
vn -0.16400494 -0.23430706 -0.95822888
vn 0.16400494 -0.23430706 -0.95822888
vn 0.00259998 -0.38239761 -0.92399422
vn -0.99997980 -0.00599988 -0.00209996
vn -0.92391124 -0.38260466 -0.00130002
vn -0.92391124 -0.38260466 0.00130002
vn -0.99997980 -0.00599988 0.00209996
vn -0.38260466 -0.92391124 -0.00130002
vn -0.00419995 -0.99998898 0.00209998
vn -0.38251929 -0.92394659 0.00130007
vn 0.99997980 -0.00599988 -0.00209996
vn 0.92402634 -0.00370011 -0.38231090
vn 0.92402634 0.00370011 -0.38231090
vn 0.99997980 0.00599988 -0.00209996
vn 0.38231090 -0.00370011 -0.92402634
vn 0.16400494 -0.23430706 -0.95822888
vn 0.16400494 0.23430706 -0.95822888
vn 0.38231090 0.00370011 -0.92402634
vn 0.38251929 -0.92394659 -0.00130007
vn 0.38251929 -0.92394659 0.00130007
vn 0.00419995 -0.99998898 0.00209998
vn 0.92391124 -0.38260466 -0.00130002
vn 0.99997980 -0.00599988 -0.00209996
vn 0.99997980 -0.00599988 0.00209996
vn 0.92391124 -0.38260466 0.00130002
vn -0.99997980 -0.00599988 0.00209996
vn -0.92402634 -0.00370011 0.38231090
vn -0.92402634 0.00370011 0.38231090
vn -0.99997980 0.00599988 0.00209996
vn -0.38231090 -0.00370011 0.92402634
vn -0.00419989 -0.00599984 0.99997318
vn -0.00419989 0.00599984 0.99997318
vn -0.38231076 0.00380011 0.92402600
vn -0.00419989 -0.00599984 0.99997318
vn -0.00259998 -0.38239761 0.92399422
vn 0.00259998 -0.38239761 0.92399422
vn 0.00419989 -0.00599984 0.99997318
vn -0.00259998 -0.92399422 0.38239761
vn 0.00259998 -0.92399422 0.38239761
vn 0.00419989 -0.00599984 0.99997318
vn 0.38231090 -0.00370011 0.92402634
vn 0.38231076 0.00380011 0.92402600
vn 0.00419989 0.00599984 0.99997318
vn 0.92402634 -0.00370011 0.38231090
vn 0.99997980 -0.00599988 0.00209996
vn 0.99997980 0.00599988 0.00209996
vn 0.92402634 0.00370011 0.38231090
vn -0.99997980 0.00599988 0.00209996
vn -0.92391124 0.38260466 0.00130002
vn -0.92391124 0.38260466 -0.00130002
vn -0.99997980 0.00599988 -0.00209996
vn -0.38251929 0.92394659 0.00130007
vn -0.14319610 0.98717313 0.07059808
vn -0.14319610 0.98717313 -0.07059808
vn -0.38260466 0.92391124 -0.00130002
vn -0.00259998 0.92399422 0.38239761
vn 0.00259998 0.92399422 0.38239761
vn 0.14319610 0.98717313 0.07059808
vn -0.00259998 0.38239761 0.92399422
vn -0.00419989 0.00599984 0.99997318
vn 0.00419989 0.00599984 0.99997318
vn 0.00259998 0.38239761 0.92399422
vn 0.38251929 0.92394659 0.00130007
vn 0.38251929 0.92394659 -0.00130007
vn 0.14319610 0.98717313 -0.07059808
vn 0.92391124 0.38260466 0.00130002
vn 0.99997980 0.00599988 0.00209996
vn 0.99997980 0.00599988 -0.00209996
vn 0.92391124 0.38260466 -0.00130002
vn -0.16400494 0.23430706 -0.95822888
vn -0.00259998 0.38239761 -0.92399422
vn 0.00259998 0.38239761 -0.92399422
vn 0.16400494 0.23430706 -0.95822888
vn -0.00259998 0.92399422 -0.38239761
vn 0.00259998 0.92399422 -0.38239761
vn 0.00000000 1.00000000 0.00000000
vn 0.00000000 1.00000000 0.00000000
vn 0.00000000 1.00000000 0.00000000
vn 0.00000000 1.00000000 0.00000000
vn 0.99997980 0.00599988 0.00209996
vn 0.99997980 -0.00599988 0.00209996
vn -0.99997980 -0.00599988 0.00209996
vn -0.99997980 0.00599988 0.00209996
vn -0.92402634 -0.00370011 -0.38231090
vn -0.88789707 -0.32529893 -0.32529893
vn -0.38231090 -0.00370011 -0.92402634
vn -0.32529893 -0.32529893 -0.88789707
vn -0.32529893 -0.88789707 -0.32529893
vn 0.38231090 -0.00370011 -0.92402634
vn 0.32520951 -0.32530951 -0.88792595
vn 0.92402634 -0.00370011 -0.38231090
vn 0.88789707 -0.32529893 -0.32529893
vn 0.32522008 -0.88795484 -0.32522008
vn -0.38231090 -0.00370011 0.92402634
vn -0.32530951 -0.32520951 0.88792595
vn -0.92402634 -0.00370011 0.38231090
vn -0.88789707 -0.32529893 0.32529893
vn -0.32529893 -0.88789707 0.32529893
vn 0.92402634 -0.00370011 0.38231090
vn 0.88795484 -0.32522008 0.32522008
vn 0.38231090 -0.00370011 0.92402634
vn 0.32520951 -0.32530951 0.88792595
vn 0.32522008 -0.88795484 0.32522008
vn -0.32529893 0.88789707 0.32529893
vn -0.92402634 0.00370011 0.38231090
vn -0.88789707 0.32529893 0.32529893
vn -0.38231090 0.00370011 0.92402634
vn -0.32530951 0.32520951 0.88792595
vn 0.92402634 0.00370011 0.38231090
vn 0.88795484 0.32522008 0.32522008
vn 0.32529893 0.88789707 0.32529893
vn 0.38227558 0.00369976 0.92404096
vn 0.32522008 0.32522008 0.88795484
vn -0.38231090 0.00370011 -0.92402634
vn -0.32529893 0.32529893 -0.88789707
vn -0.92402634 0.00370011 -0.38231090
vn -0.88789707 0.32529893 -0.32529893
vn -0.32529893 0.88789707 -0.32529893
vn 0.92402634 0.00370011 -0.38231090
vn 0.88789707 0.32529893 -0.32529893
vn 0.38231090 0.00370011 -0.92402634
vn 0.32520951 0.32530951 -0.88792595
vn 0.32520951 0.88792595 -0.32530951
vn 0.00000000 0.70710678 -0.70710678
vn 0.00000000 0.70710678 -0.70710678
vn 0.00000000 0.70710678 -0.70710678
vn 0.00000000 0.70710678 -0.70710678
vn -0.70710678 0.70710678 0.00000000
vn -0.70710678 0.70710678 0.00000000
vn -0.70710678 0.70710678 0.00000000
vn -0.70710678 0.70710678 0.00000000
vn 0.70710678 0.70710678 0.00000000
vn 0.70710678 0.70710678 0.00000000
vn 0.70710678 0.70710678 0.00000000
vn 0.70710678 0.70710678 0.00000000
vn 0.00000000 0.70710678 0.70710678
vn 0.00000000 0.70710678 0.70710678
vn 0.00000000 0.70710678 0.70710678
vn 0.00000000 0.70710678 0.70710678
vn 0.00000000 1.00000000 0.00000000
vn 0.00000000 1.00000000 0.00000000
vn 0.00000000 1.00000000 0.00000000
vn 0.00000000 1.00000000 0.00000000
vn 0.00000000 0.00000000 -1.00000000
vn 0.00000000 0.00000000 -1.00000000
vn 0.00000000 0.00000000 -1.00000000
vn 0.00000000 0.00000000 -1.00000000
vn -1.00000000 0.00000000 0.00000000
vn -1.00000000 0.00000000 0.00000000
vn -1.00000000 0.00000000 0.00000000
vn -1.00000000 0.00000000 0.00000000
vn 0.00000000 0.00000000 1.00000000
vn 0.00000000 0.00000000 1.00000000
vn 0.00000000 0.00000000 1.00000000
vn 0.00000000 0.00000000 1.00000000
vn 1.00000000 0.00000000 0.00000000
vn 1.00000000 0.00000000 0.00000000
vn 1.00000000 0.00000000 0.00000000
vn 1.00000000 0.00000000 0.00000000
vt 0.73577200 0.99819400
vt 0.73577300 0.99471100
vt 0.51733100 0.99467300
vt 0.51733100 0.99815500
vt 0.73577300 0.99471100
vt 0.73577300 0.99122900
vt 0.51733200 0.99119000
vt 0.51733100 0.99467300
vt 0.33383500 0.35637800
vt 0.33396000 0.35290300
vt 0.02071200 0.35286700
vt 0.02083800 0.35634000
vt 0.33396000 0.35290300
vt 0.33447000 0.34945400
vt 0.02020400 0.34942900
vt 0.02071200 0.35286700
vt 0.34075600 0.35575600
vt 0.33731300 0.35625700
vt 0.33722600 0.99321200
vt 0.34067400 0.99371700
vt 0.33731300 0.35625700
vt 0.33374800 0.99308900
vt 0.33722600 0.99321200
vt 0.76355400 0.99115700
vt 0.76355200 0.99463900
vt 0.98199400 0.99471100
vt 0.98199500 0.99122800
vt 0.76355200 0.99463900
vt 0.76355100 0.99812200
vt 0.98199300 0.99819400
vt 0.98199400 0.99471100
vt 0.01735900 0.35621700
vt 0.01727300 0.99317200
vt 0.02075100 0.99305200
vt 0.01735900 0.35621700
vt 0.01391100 0.35571100
vt 0.01382900 0.99367300
vt 0.01727300 0.99317200
vt 0.05664300 0.00688000
vt 0.05664300 0.01036200
vt 0.27508400 0.01034900
vt 0.27508400 0.00686600
vt 0.05664300 0.01036200
vt 0.05664300 0.01384500
vt 0.27508400 0.01383200
vt 0.27508400 0.01034900
vt 0.33438200 1.00000000
vt 0.33387300 0.99656100
vt 0.02062500 0.99652700
vt 0.02011600 0.99997600
vt 0.33387300 0.99656100
vt 0.02062500 0.99652700
vt 0.05666300 0.32677400
vt 0.05666300 0.33025800
vt 0.27510400 0.33024400
vt 0.27510400 0.32676100
vt 0.05666300 0.33025800
vt 0.05666300 0.33374000
vt 0.27510400 0.33372700
vt 0.27510400 0.33024400
vt 0.33915400 0.00000000
vt 0.33967200 0.00349200
vt 0.99310400 0.00357700
vt 0.99359100 0.00007500
vt 0.33967200 0.00349200
vt 0.33982100 0.00701800
vt 0.99298500 0.00710600
vt 0.99310400 0.00357700
vt 0.33629500 0.00688500
vt 0.33613200 0.33702300
vt 0.33965700 0.33692100
vt 0.33629500 0.00688500
vt 0.33280000 0.00634200
vt 0.33264300 0.33753400
vt 0.33613200 0.33702300
vt 0.33954200 0.34045000
vt 0.99295900 0.34051700
vt 0.99280800 0.33699100
vt 0.33954200 0.34045000
vt 0.33905800 0.34395300
vt 0.99347800 0.34400900
vt 0.99295900 0.34051700
vt 1.00000000 0.00651200
vt 0.99650900 0.00701300
vt 0.99633300 0.33712100
vt 0.99982900 0.33766400
vt 0.99650900 0.00701300
vt 0.99633300 0.33712100
vt 0.36658000 0.02989200
vt 0.36656500 0.31408300
vt 0.96606200 0.31411600
vt 0.96607800 0.02992600
vt 0.98220400 0.35458200
vt 0.76376200 0.35451000
vt 0.73588600 0.35458200
vt 0.51744400 0.35454300
vt 0.33838900 0.35183100
vt 0.33661600 0.35359900
vt 0.33838900 0.35183100
vt 0.33661600 0.35359900
vt 0.33661600 0.35359900
vt 0.01628500 0.35179200
vt 0.01805500 0.35356300
vt 0.01628500 0.35179200
vt 0.01805500 0.35356300
vt 0.01805500 0.35356300
vt 0.33830000 0.99763700
vt 0.33653000 0.99586600
vt 0.33830000 0.99763700
vt 0.33653000 0.99586600
vt 0.33653000 0.99586600
vt 0.01619700 0.99759800
vt 0.01796900 0.99583000
vt 0.01619700 0.99759800
vt 0.01796900 0.99583000
vt 0.01796900 0.99583000
vt 0.33699000 0.00419600
vt 0.33522000 0.00236900
vt 0.33699000 0.00419600
vt 0.33522000 0.00236900
vt 0.33699000 0.00419600
vt 0.33508400 0.34155900
vt 0.33684500 0.33973300
vt 0.33684500 0.33973300
vt 0.33508400 0.34155900
vt 0.33684500 0.33973300
vt 0.99757000 0.00248100
vt 0.99580300 0.00430000
vt 0.99757000 0.00248100
vt 0.99580300 0.00430000
vt 0.99580300 0.00430000
vt 0.99740900 0.34163900
vt 0.99564100 0.33981000
vt 0.99740900 0.34163900
vt 0.99564100 0.33981000
vt 0.99564100 0.33981000
vt 0.34583200 0.33081900
vt 0.35183900 0.32463900
vt 0.35194600 0.01934500
vt 0.34601100 0.01312200
vt 0.35183900 0.32463900
vt 0.34583200 0.33081900
vt 0.98661800 0.33088900
vt 0.98068200 0.32466800
vt 0.34601100 0.01312200
vt 0.35194600 0.01934500
vt 0.98080100 0.01938300
vt 0.98680800 0.01320500
vt 0.98068200 0.32466800
vt 0.98661800 0.33088900
vt 0.98680800 0.01320500
vt 0.98080100 0.01938300
vt 0.34583200 0.33081900
vt 0.34601100 0.01312200
vt 0.98661800 0.33088900
vt 0.98680800 0.01320500
vt 0.35194600 0.01934500
vt 0.35183900 0.32463900
vt 0.35618000 0.31953700
vt 0.35595300 0.02472200
vt 0.35183900 0.32463900
vt 0.98068200 0.32466800
vt 0.97667200 0.31929400
vt 0.35618000 0.31953700
vt 0.98068200 0.32466800
vt 0.98080100 0.01938300
vt 0.97645600 0.02448200
vt 0.97667200 0.31929400
vt 0.98080100 0.01938300
vt 0.35194600 0.01934500
vt 0.35595300 0.02472200
vt 0.97645600 0.02448200
f 1/1/1 2/2/2 3/3/3
f 1/1/1 3/3/3 4/4/4
f 5/5/5 6/6/6 7/7/7
f 5/5/5 7/7/7 8/8/8
f 9/9/9 10/10/10 11/11/11
f 9/9/9 11/11/11 12/12/12
f 13/13/13 14/14/14 15/15/15
f 13/13/13 15/15/15 16/16/16
f 17/17/17 18/18/18 19/19/19
f 17/17/17 19/19/19 20/20/20
f 21/21/21 9/9/9 22/22/22
f 21/21/21 22/22/22 23/23/23
f 24/24/24 25/25/25 26/26/26
f 24/24/24 26/26/26 27/27/27
f 28/28/28 29/29/29 30/30/30
f 28/28/28 30/30/30 31/31/31
f 12/12/12 32/32/32 33/33/33
f 12/12/12 33/33/33 34/34/34
f 35/35/35 36/36/36 37/37/37
f 35/35/35 37/37/37 38/38/38
f 39/39/39 40/40/40 41/41/41
f 39/39/39 41/41/41 42/42/42
f 43/43/43 44/44/44 45/45/45
f 43/43/43 45/45/45 46/46/46
f 47/47/47 48/48/48 49/49/49
f 47/47/47 49/49/49 50/50/50
f 51/51/51 22/22/22 34/34/34
f 51/51/51 34/34/34 52/52/52
f 53/53/53 54/54/54 55/55/55
f 53/53/53 55/55/55 56/56/56
f 57/57/57 58/58/58 59/59/59
f 57/57/57 59/59/59 60/60/60
f 61/61/61 62/62/62 63/63/63
f 61/61/61 63/63/63 64/64/64
f 65/65/65 66/66/66 67/67/67
f 65/65/65 67/67/67 68/68/68
f 66/66/66 69/69/69 70/70/70
f 66/66/66 70/70/70 71/71/71
f 72/72/72 73/73/73 74/74/74
f 72/72/72 74/74/74 75/75/75
f 71/71/71 76/76/76 77/77/77
f 71/71/71 77/77/77 78/78/78
f 79/79/79 80/80/80 81/81/81
f 79/79/79 81/81/81 82/82/82
f 83/83/83 84/84/84 85/85/85
f 83/83/83 85/85/85 86/86/86
f 87/87/87 67/67/67 78/78/78
f 87/87/87 78/78/78 88/88/88
f 9/9/9 12/12/12 34/34/34
f 9/9/9 34/34/34 22/22/22
f 44/44/44 53/53/53 56/56/56
f 44/44/44 56/56/56 45/45/45
f 89/89/89 90/90/90 91/91/91
f 89/89/89 91/91/91 92/92/92
f 24/24/24 27/27/27 93/93/93
f 24/24/24 93/93/93 94/94/94
f 7/7/7 6/6/6 95/95/95
f 7/7/7 95/95/95 96/96/96
f 18/18/18 17/17/17 97/97/97
f 18/18/18 97/97/97 98/98/98
f 99/99/99 14/14/14 13/13/13
f 99/99/99 13/13/13 100/100/100
f 10/10/10 9/9/9 21/21/21
f 10/10/10 21/21/21 101/101/101
f 16/16/16 15/15/15 102/102/102
f 16/16/16 102/102/102 103/103/103
f 104/104/104 36/36/36 35/35/35
f 104/104/104 35/35/35 105/105/105
f 32/32/32 12/12/12 11/11/11
f 32/32/32 11/11/11 106/106/106
f 48/48/48 47/47/47 107/107/107
f 48/48/48 107/107/107 108/108/108
f 109/109/109 20/20/20 19/19/19
f 109/109/109 19/19/19 110/110/110
f 23/23/23 22/22/22 51/51/51
f 23/23/23 51/51/51 111/111/111
f 38/38/38 37/37/37 112/112/112
f 38/38/38 112/112/112 113/113/113
f 114/114/114 50/50/50 49/49/49
f 114/114/114 49/49/49 115/115/115
f 52/52/52 34/34/34 33/33/33
f 52/52/52 33/33/33 116/116/116
f 69/69/69 66/66/66 65/65/65
f 69/69/69 65/65/65 117/117/117
f 62/62/62 61/61/61 118/118/118
f 62/62/62 118/118/118 119/119/119
f 120/120/120 73/73/73 72/72/72
f 120/120/120 72/72/72 121/121/121
f 122/122/122 80/80/80 79/79/79
f 122/122/122 79/79/79 123/123/123
f 76/76/76 71/71/71 70/70/70
f 76/76/76 70/70/70 124/124/124
f 75/75/75 74/74/74 125/125/125
f 75/75/75 125/125/125 126/126/126
f 84/84/84 83/83/83 127/127/127
f 84/84/84 127/127/127 128/128/128
f 129/129/129 64/64/64 63/63/63
f 129/129/129 63/63/63 130/130/130
f 68/68/68 67/67/67 87/87/87
f 68/68/68 87/87/87 131/131/131
f 82/82/82 81/81/81 132/132/132
f 82/82/82 132/132/132 133/133/133
f 134/134/134 86/86/86 85/85/85
f 134/134/134 85/85/85 135/135/135
f 88/88/88 78/78/78 77/77/77
f 88/88/88 77/77/77 136/136/136
f 137/137/137 138/138/138 139/139/139
f 137/137/137 139/139/139 140/140/140
f 141/141/141 142/142/142 143/143/143
f 141/141/141 143/143/143 144/144/144
f 145/145/145 146/146/146 147/147/147
f 145/145/145 147/147/147 148/148/148
f 149/149/149 150/150/150 151/151/151
f 149/149/149 151/151/151 152/152/152
f 66/66/66 71/71/71 153/153/153
f 66/66/66 153/153/153 154/154/154
f 71/71/71 78/78/78 155/155/155
f 71/71/71 155/155/155 153/153/153
f 78/78/78 67/67/67 156/156/156
f 78/78/78 156/156/156 155/155/155
f 67/67/67 66/66/66 154/154/154
f 67/67/67 154/154/154 156/156/156
f 157/157/157 158/158/158 159/159/159
f 157/157/157 159/159/159 160/160/160
f 161/161/161 162/162/162 163/163/163
f 161/161/161 163/163/163 164/164/164
f 165/165/165 166/166/166 167/167/167
f 165/165/165 167/167/167 168/168/168
f 169/169/169 170/170/170 171/171/171
f 169/169/169 171/171/171 172/172/172