# https://github.com/mikedh/trimesh
mtllib microwave_left_group_main_image3.mtl
usemtl microwave_left_group_main_image3
v 0.32114315 -0.20287059 0.12147328
v 0.32114315 -0.20287059 0.09651861
v 0.30358959 -0.20287059 0.12147328
v 0.30358959 -0.20287059 0.09651861
v 0.26188233 -0.20287059 0.12147328
v 0.26188233 -0.20287059 0.09651861
vn 0.00000000 -1.00000000 0.00000000
vn 0.00000000 -1.00000000 0.00000000
vn 0.00000000 -1.00000000 0.00000000
vn 0.00000000 -1.00000000 0.00000000
vn 0.00000000 -1.00000000 0.00000000
vn 0.00000000 -1.00000000 0.00000000
vt 0.62518900 0.06294100
vt 0.62518900 0.15012400
vt 0.56173600 0.06025500
vt 0.56173600 0.15012400
vt 0.41097400 0.05689300
vt 0.41097400 0.15012400
f 3/3/3 5/5/5 6/6/6
f 3/3/3 6/6/6 4/4/4
f 4/4/4 2/2/2 1/1/1
f 4/4/4 1/1/1 3/3/3

