# https://github.com/mikedh/trimesh
mtllib microwave_main_group_main_image2.mtl
usemtl microwave_main_group_main_image2
v 0.36331931 -0.20570410 -0.15527372
v 0.36014466 -0.20570410 -0.15844837
v 0.28241135 -0.20570410 0.03197457
v 0.36448119 -0.20570410 -0.15093719
v 0.36448119 -0.20570410 0.20629249
v 0.20861406 -0.20570410 0.21496555
v 0.35580814 -0.20570410 0.21496555
v 0.20861406 -0.20570410 -0.15961025
v 0.35580814 -0.20570410 -0.15961025
v 0.36014466 -0.20570410 0.21380366
v 0.36331931 -0.20570410 0.21062902
v 0.36253005 -0.20884159 -0.15481894
v 0.28241135 -0.20884159 0.03197457
v 0.35968842 -0.20884159 -0.15765911
v 0.36360098 -0.20884159 -0.15082276
v 0.36360098 -0.20884159 0.20617660
v 0.35569224 -0.20884159 0.21408534
v 0.20949428 -0.20884159 0.21408534
v 0.20949428 -0.20884159 -0.15873003
v 0.35569224 -0.20884159 -0.15873003
v 0.35968842 -0.20884159 0.21301440
v 0.36253005 -0.20884159 0.21017277
v 0.36001116 -0.20865821 -0.15821804
v 0.36308752 -0.20865726 -0.15514169
v 0.36308752 -0.20865726 -0.15514169
v 0.36001116 -0.20865821 -0.15821804
v 0.36014466 -0.20821409 -0.15844837
v 0.36331931 -0.20821409 -0.15527372
v 0.35577439 -0.20865726 0.21470735
v 0.20887079 -0.20865726 0.21470735
v 0.20887079 -0.20865726 0.21470735
v 0.35577439 -0.20865726 0.21470735
v 0.35580814 -0.20821409 0.21496555
v 0.20861406 -0.20821409 0.21496555
v 0.36331931 -0.20570410 -0.15527372
v 0.36331931 -0.20821409 -0.15527372
v 0.36014466 -0.20821409 -0.15844837
v 0.36014466 -0.20570410 -0.15844837
v 0.36448119 -0.20570410 -0.15093719
v 0.36448119 -0.20821409 -0.15093719
v 0.36448119 -0.20570410 0.20629249
v 0.36448119 -0.20821409 0.20629249
v 0.36448119 -0.20821409 -0.15093719
v 0.36448119 -0.20570410 -0.15093719
v 0.20861406 -0.20570410 0.21496555
v 0.20861406 -0.20821409 0.21496555
v 0.35580814 -0.20821409 0.21496555
v 0.35580814 -0.20570410 0.21496555
v 0.35580814 -0.20570410 -0.15961025
v 0.35580814 -0.20821409 -0.15961025
v 0.20861406 -0.20821409 -0.15961025
v 0.20861406 -0.20570410 -0.15961025
v 0.36014466 -0.20821409 0.21380366
v 0.36014466 -0.20570410 0.21380366
v 0.36331931 -0.20570410 0.21062902
v 0.36331931 -0.20821409 0.21062902
v 0.36448119 -0.20821409 0.20629249
v 0.36448119 -0.20570410 0.20629249
v 0.36448119 -0.20821409 -0.15093719
v 0.36422299 -0.20865726 -0.15090345
v 0.36422299 -0.20865726 -0.15090345
v 0.36448119 -0.20821409 0.20629249
v 0.36422299 -0.20865726 0.20625875
v 0.36422299 -0.20865726 0.20625875
v 0.36331931 -0.20821409 0.21062902
v 0.36308752 -0.20865726 0.21049552
v 0.36308752 -0.20865726 0.21049552
v 0.20887079 -0.20865726 0.21470735
v 0.20887079 -0.20865821 -0.15935352
v 0.36001116 -0.20865726 0.21357188
v 0.36001116 -0.20865726 0.21357188
v 0.36014466 -0.20821409 0.21380366
v 0.20861406 -0.20821409 -0.15961025
v 0.35580814 -0.20821409 -0.15961025
v 0.35577439 -0.20865821 -0.15935352
v 0.20887079 -0.20865821 -0.15935352
v 0.20887079 -0.20865821 -0.15935352
v 0.35577439 -0.20865821 -0.15935352
vn 0.00000000 1.00000000 0.00000000
vn 0.00000000 1.00000000 0.00000000
vn 0.00000000 1.00000000 0.00000000
vn 0.00000000 1.00000000 0.00000000
vn 0.00000000 1.00000000 0.00000000
vn 0.00000000 1.00000000 0.00000000
vn 0.00000000 1.00000000 0.00000000
vn 0.00000000 1.00000000 0.00000000
vn 0.00000000 1.00000000 0.00000000
vn 0.00000000 1.00000000 0.00000000
vn 0.00000000 1.00000000 0.00000000
vn 0.00614385 -0.99997542 -0.00337912
vn 0.00000000 -1.00000000 0.00000000
vn 0.00307194 -0.99998165 -0.00522230
vn 0.03746334 -0.99929799 -0.00015354
vn 0.03608332 -0.99934877 0.00015354
vn 0.00000000 -0.99997819 0.00660466
vn -0.01720198 -0.99982920 0.00675792
vn -0.01658782 -0.99984160 -0.00645083
vn 0.00000000 -0.99998017 -0.00629748
vn 0.00307193 -0.99997999 0.00552949
vn 0.00614385 -0.99997489 0.00353272
vn 0.27851932 -0.82956052 -0.48400034
vn 0.48416309 -0.82960102 -0.27811553
vn 0.83943588 -0.24710063 -0.48403375
vn 0.48451666 -0.24708153 -0.83916287
vn 0.49965150 -0.03590484 -0.86548208
vn 0.86548208 -0.03590484 -0.49965150
vn 0.00415220 -0.82079773 0.57120385
vn 0.00000000 -0.82048636 0.57166610
vn 0.00000000 -0.23919127 0.97097247
vn 0.00737172 -0.23942418 0.97088708
vn 0.00760701 -0.03603584 0.99932155
vn 0.00000000 -0.02990234 0.99955283
vn 0.86601905 0.00000000 -0.50001100
vn 0.86548208 -0.03590484 -0.49965150
vn 0.49965150 -0.03590484 -0.86548208
vn 0.50001100 0.00000000 -0.86601905
vn 0.99999488 0.00000000 -0.00319998
vn 0.99934547 -0.03603309 -0.00320271
vn 0.99999488 0.00000000 0.00319998
vn 0.99934547 -0.03603309 0.00320271
vn 0.99934547 -0.03603309 -0.00320271
vn 0.99999488 0.00000000 -0.00319998
vn 0.00000000 0.00000000 1.00000000
vn 0.00000000 -0.02990234 0.99955283
vn 0.00760701 -0.03603584 0.99932155
vn 0.00769977 0.00000000 0.99997036
vn 0.00769977 0.00000000 -0.99997036
vn 0.00760701 -0.03603584 -0.99932155
vn 0.00000000 -0.02990234 -0.99955283
vn 0.00000000 0.00000000 -1.00000000
vn 0.49965150 -0.03590484 0.86548208
vn 0.50001100 0.00000000 0.86601905
vn 0.86601905 0.00000000 0.50001100
vn 0.86548208 -0.03590484 0.49965150
vn 0.99934547 -0.03603309 0.00320271
vn 0.99999488 0.00000000 0.00319998
vn 0.99934547 -0.03603309 -0.00320271
vn 0.97093041 -0.23934167 -0.00311462
vn 0.57157201 -0.82054994 -0.00179914
vn 0.99934547 -0.03603309 0.00320271
vn 0.97093041 -0.23934167 0.00311462
vn 0.57157214 -0.82055014 0.00166074
vn 0.86548208 -0.03590484 0.49965150
vn 0.83916287 -0.24708153 0.48451666
vn 0.48416309 -0.82960102 0.27811553
vn -0.57166610 -0.82048636 0.00000000
vn -0.57175925 -0.82042145 0.00000000
vn 0.27811553 -0.82960102 0.48416309
vn 0.48411344 -0.24708819 0.83939359
vn 0.49965267 -0.03583976 0.86548410
vn 0.00000000 -0.02990234 -0.99955283
vn 0.00760701 -0.03603584 -0.99932155
vn 0.00737110 -0.23933633 -0.97090874
vn 0.00000000 -0.23912755 -0.97098816
vn 0.00000000 -0.82042145 -0.57175925
vn 0.00415218 -0.82070343 -0.57133934
vt 0.06817000 0.95255100
vt 0.06701200 0.95370900
vt 0.04073800 0.88737900
vt 0.06859400 0.95096900
vt 0.06859400 0.82378900
vt 0.01381700 0.82062500
vt 0.06543000 0.82062500
vt 0.01381800 0.95413300
vt 0.06543100 0.95413300
vt 0.06701200 0.82104900
vt 0.06817000 0.82220700
vt 0.98500600 0.97690700
vt 0.77779800 0.49383000
vt 0.97766600 0.98425400
vt 0.98777200 0.96657300
vt 0.98714800 0.04300700
vt 0.96668600 0.02258100
vt 0.58896500 0.02394800
vt 0.58961400 0.98617000
vt 0.96733800 0.98702500
vt 0.97701700 0.02533900
vt 0.98436800 0.03267600
vt 0.97857000 0.98582800
vt 0.98657900 0.97781700
vt 0.98657900 0.97781700
vt 0.97857000 0.98582800
vt 0.97950500 0.98744900
vt 0.98821300 0.97877300
vt 0.96689300 0.02081100
vt 0.58722300 0.02227700
vt 0.58722300 0.02227700
vt 0.96689300 0.02081100
vt 0.96698200 0.01892400
vt 0.58552500 0.02111200
vt 0.06781500 0.82043000
vt 0.06781500 0.81902400
vt 0.06617700 0.81902400
vt 0.06617800 0.82043000
vt 0.06945300 0.82043000
vt 0.06945300 0.81902300
vt 0.56534900 0.06473500
vt 0.55509000 0.06473500
vt 0.55509500 0.99254100
vt 0.56535400 0.99254100
vt 0.98411000 0.01564200
vt 0.98411000 0.00538200
vt 0.60758500 0.00538800
vt 0.60758500 0.01564800
vt 0.06454000 0.82043000
vt 0.06454000 0.81902400
vt 0.01292700 0.81903200
vt 0.01292700 0.82043800
vt 0.59563800 0.00538800
vt 0.59563800 0.01564800
vt 0.58369100 0.01564800
vt 0.58369000 0.00538800
vt 0.57174200 0.00538800
vt 0.57174200 0.01564800
vt 0.99142000 0.96687600
vt 0.98953700 0.96678500
vt 0.98953700 0.96678500
vt 0.99079600 0.04269900
vt 0.98891300 0.04279300
vt 0.98891300 0.04279300
vt 0.98755600 0.03082500
vt 0.98593800 0.03176600
vt 0.98593800 0.03176600
vt 0.58722300 0.02227700
vt 0.58787400 0.98784300
vt 0.97792100 0.02376400
vt 0.97792100 0.02376400
vt 0.97887200 0.02212600
vt 0.58617700 0.98901000
vt 0.96763900 0.99068200
vt 0.96754700 0.98879500
vt 0.58787400 0.98784300
vt 0.58787400 0.98784300
vt 0.96754700 0.98879500
f 1/1/1 2/2/2 3/3/3
f 1/1/1 3/3/3 4/4/4
f 3/3/3 5/5/5 4/4/4
f 3/3/3 6/6/6 7/7/7
f 3/3/3 8/8/8 6/6/6
f 3/3/3 9/9/9 8/8/8
f 3/3/3 7/7/7 10/10/10
f 5/5/5 3/3/3 11/11/11
f 3/3/3 10/10/10 11/11/11
f 2/2/2 9/9/9 3/3/3
f 12/12/12 13/13/13 14/14/14
f 12/12/12 15/15/15 13/13/13
f 13/13/13 15/15/15 16/16/16
f 13/13/13 17/17/17 18/18/18
f 13/13/13 18/18/18 19/19/19
f 13/13/13 19/19/19 20/20/20
f 13/13/13 21/21/21 17/17/17
f 16/16/16 22/22/22 13/13/13
f 13/13/13 22/22/22 21/21/21
f 14/14/14 13/13/13 20/20/20
f 12/12/12 14/14/14 23/23/23
f 12/12/12 23/23/23 24/24/24
f 25/25/25 26/26/26 27/27/27
f 25/25/25 27/27/27 28/28/28
f 18/18/18 17/17/17 29/29/29
f 18/18/18 29/29/29 30/30/30
f 31/31/31 32/32/32 33/33/33
f 31/31/31 33/33/33 34/34/34
f 35/35/35 36/36/36 37/37/37
f 35/35/35 37/37/37 38/38/38
f 39/39/39 40/40/40 36/36/36
f 39/39/39 36/36/36 35/35/35
f 41/41/41 42/42/42 43/43/43
f 41/41/41 43/43/43 44/44/44
f 45/45/45 46/46/46 47/47/47
f 45/45/45 47/47/47 48/48/48
f 49/49/49 50/50/50 51/51/51
f 49/49/49 51/51/51 52/52/52
f 48/48/48 47/47/47 53/53/53
f 48/48/48 53/53/53 54/54/54
f 55/55/55 56/56/56 57/57/57
f 55/55/55 57/57/57 58/58/58
f 54/54/54 53/53/53 56/56/56
f 54/54/54 56/56/56 55/55/55
f 38/38/38 37/37/37 50/50/50
f 38/38/38 50/50/50 49/49/49
f 28/28/28 59/59/59 60/60/60
f 28/28/28 60/60/60 25/25/25
f 24/24/24 61/61/61 15/15/15
f 24/24/24 15/15/15 12/12/12
f 59/59/59 62/62/62 63/63/63
f 59/59/59 63/63/63 60/60/60
f 61/61/61 64/64/64 16/16/16
f 61/61/61 16/16/16 15/15/15
f 62/62/62 65/65/65 66/66/66
f 62/62/62 66/66/66 63/63/63
f 64/64/64 67/67/67 22/22/22
f 64/64/64 22/22/22 16/16/16
f 68/68/68 69/69/69 19/19/19
f 68/68/68 19/19/19 18/18/18
f 17/17/17 21/21/21 70/70/70
f 17/17/17 70/70/70 29/29/29
f 32/32/32 71/71/71 72/72/72
f 32/32/32 72/72/72 33/33/33
f 73/73/73 74/74/74 75/75/75
f 73/73/73 75/75/75 76/76/76
f 77/77/77 78/78/78 20/20/20
f 77/77/77 20/20/20 19/19/19
f 14/14/14 20/20/20 78/78/78
f 14/14/14 78/78/78 23/23/23
f 26/26/26 75/75/75 74/74/74
f 26/26/26 74/74/74 27/27/27
f 21/21/21 22/22/22 67/67/67
f 21/21/21 67/67/67 70/70/70
f 71/71/71 66/66/66 65/65/65
f 71/71/71 65/65/65 72/72/72

